<svg width="34" height="30" viewBox="0 0 34 30" fill="#fff" xmlns="http://www.w3.org/2000/svg">
<title>Cart light icon</title>
  <path
    d="M0.937364 1.87907H4.00984L10.9533 22.7137C9.49081 23.2258 8.43194 24.6145 8.43194 26.2505C8.43194 28.3162 10.1157 30 12.1814 30C14.2471 30 15.9309 28.3162 15.9309 26.2505C15.9309 25.5692 15.7442 24.927 15.4231 24.3758H24.8749C24.5537 24.927 24.3671 25.5692 24.3671 26.2505C24.3671 28.3162 26.0509 30 28.1166 30C30.1823 30 31.866 28.3162 31.866 26.2505C31.866 24.1849 30.1823 22.5011 28.1166 22.5011H12.8627L11.6129 18.7516H29.0583C29.4619 18.7516 29.8177 18.4956 29.9479 18.1094L33.6974 6.86099C33.7929 6.57457 33.7451 6.26212 33.5672 6.01476C33.3893 5.77173 33.1072 5.62419 32.8078 5.62419H7.23854L5.57645 0.642268C5.4506 0.260379 5.09041 0 4.68682 0H0.937364C0.420946 0 0 0.420946 0 0.937364C0 1.45378 0.420946 1.87907 0.937364 1.87907ZM28.1209 24.3758C29.1538 24.3758 29.9957 25.2177 29.9957 26.2505C29.9957 27.2834 29.1538 28.1253 28.1209 28.1253C27.0881 28.1253 26.2462 27.2834 26.2462 26.2505C26.2462 25.2177 27.0881 24.3758 28.1209 24.3758ZM12.1857 24.3758C13.2186 24.3758 14.0605 25.2177 14.0605 26.2505C14.0605 27.2834 13.2186 28.1253 12.1857 28.1253C11.1529 28.1253 10.311 27.2834 10.311 26.2505C10.311 25.2177 11.1529 24.3758 12.1857 24.3758ZM31.5059 7.50325L28.3813 16.8769H10.988L7.86345 7.50325H31.5059Z" />
</svg>
